<?xml version="1.0" encoding="UTF-8" standalone="no"?>
<!-- Created with Inkscape (http://www.inkscape.org/) -->

<svg
   width="1920.7559"
   height="1080.7559"
   viewBox="0 0 508.19999 285.94999"
   version="1.1"
   id="svg1"
   xml:space="preserve"
   inkscape:version="1.4.2 (ebf0e940d0, 2025-05-08)"
   sodipodi:docname="void.svg"
   xmlns:inkscape="http://www.inkscape.org/namespaces/inkscape"
   xmlns:sodipodi="http://sodipodi.sourceforge.net/DTD/sodipodi-0.dtd"
   xmlns="http://www.w3.org/2000/svg"
   xmlns:svg="http://www.w3.org/2000/svg"><sodipodi:namedview
     id="namedview1"
     pagecolor="#ffffff"
     bordercolor="#000000"
     borderopacity="0.25"
     inkscape:showpageshadow="2"
     inkscape:pageopacity="0.0"
     inkscape:pagecheckerboard="0"
     inkscape:deskcolor="#d1d1d1"
     inkscape:document-units="mm"
     inkscape:zoom="0.2614202"
     inkscape:cx="937.18849"
     inkscape:cy="1048.121"
     inkscape:window-width="1894"
     inkscape:window-height="1020"
     inkscape:window-x="10"
     inkscape:window-y="44"
     inkscape:window-maximized="1"
     inkscape:current-layer="g21"
     showgrid="false"
     showguides="true" /><defs
     id="defs1" /><g
     inkscape:label="Layer 1"
     inkscape:groupmode="layer"
     id="layer1"
     transform="translate(0.1,0.1)"><rect
       style="fill:#191724;fill-opacity:1;stroke:#000000;stroke-width:0.2;stroke-linecap:round;stroke-linejoin:round;stroke-dasharray:none"
       id="rect10"
       width="508"
       height="285.75"
       x="0"
       y="0" /><g
       id="g8"
       transform="translate(1.6e-7,7.4083382)"><g
         id="g21"
         transform="matrix(0.95555096,0,0,0.95555096,11.290056,30.240941)"><text
           xml:space="preserve"
           style="font-weight:900;font-size:8.37145px;line-height:1.1;font-family:'SFMono Nerd Font';-inkscape-font-specification:'SFMono Nerd Font Heavy';text-align:start;writing-mode:lr-tb;direction:ltr;text-anchor:start;fill:#3e8fb0;fill-opacity:1;stroke-width:0.237298;stroke-linecap:round;stroke-linejoin:round"
           x="23.715635"
           y="229.03177"
           id="text20"><tspan
             sodipodi:role="line"
             id="tspan20"
             style="fill:#3e8fb0;fill-opacity:1;stroke-width:0.2373"
             x="23.715635"
             y="229.03177"><tspan
   style="fill:#286983;fill-opacity:1"
   id="tspan15">01010110 01001111 01001001 01000100</tspan> <tspan
   style="fill:#232136;fill-opacity:1"
   id="tspan16">00100000</tspan> 01001100 01001001 01001110 01010101 01011000</tspan></text><g
           id="g58"
           transform="translate(3.197601,-137.13711)"><g
             id="text31"
             style="font-weight:900;font-size:10.5151px;line-height:1.1;font-family:'SFMono Nerd Font';-inkscape-font-specification:'SFMono Nerd Font Heavy';fill:#286983;stroke-width:0.298066;stroke-linecap:round;stroke-linejoin:round"
             aria-label="&#10;██╗   ██╗ ██████╗ ██╗██████╗ &#10;██║   ██║██╔═══██╗██║██╔══██╗ &#10;██║   ██║██║   ██║██║██║  ██║&#10;╚██╗ ██╔╝██║   ██║██║██║  ██║ &#10; ╚████╔╝ ╚██████╔╝██║██████╔╝&#10;  ╚═══╝   ╚═════╝ ╚═╝╚═════╝&#10;"><path
               id="path51"
               d="m 35.347939,345.56692 h 3.866147 v -1.23224 h -2.633909 v -5.3397 h -1.232238 z m -2.464477,2.46447 h 6.330624 v -1.23224 h -5.098385 v -7.80417 h -1.232239 z m 3.866148,-2.46447 h 8.964533 v -1.23224 H 36.74961 Z m 0,2.46447 h 8.964533 v -1.23224 H 36.74961 Z m 6.500057,-2.46447 H 52.2142 v -1.23224 h -8.964533 z m 0,2.46447 H 52.2142 v -1.23224 h -8.964533 z m 6.500055,-2.46447 h 8.964533 v -1.23224 h -8.964533 z m 0,2.46447 h 8.964533 v -1.23224 h -8.964533 z m 10.366205,-2.46447 v -6.57194 h -1.232239 v 5.3397 h -2.633909 v 1.23224 z m 2.464476,2.46447 v -9.03641 h -1.232238 v 7.80417 h -5.098386 v 1.23224 z m 24.767987,-2.46447 h 3.866147 v -1.23224 h -2.633909 v -5.3397 H 87.34839 Z m -2.464476,2.46447 h 6.330623 v -1.23224 h -5.098385 v -7.80417 h -1.232238 z m 3.866151,-2.46447 h 8.964533 v -1.23224 h -8.964533 z m 0,2.46447 h 8.964533 v -1.23224 h -8.964533 z m 6.500054,-2.46447 h 8.964531 v -1.23224 h -8.964531 z m 0,2.46447 h 8.964531 v -1.23224 h -8.964531 z m 6.500061,-2.46447 h 8.96453 v -1.23224 h -8.96453 z m 0,2.46447 h 8.96453 v -1.23224 h -8.96453 z m 6.50005,-2.46447 h 8.96454 v -1.23224 h -8.96454 z m 0,2.46447 h 8.96454 v -1.23224 h -8.96454 z m 6.50006,-2.46447 h 8.96454 v -1.23224 h -8.96454 z m 0,2.46447 h 8.96454 v -1.23224 h -8.96454 z m 10.36621,-2.46447 v -6.57194 h -1.23224 v 5.3397 h -2.63391 v 1.23224 z m 2.46447,2.46447 v -9.03641 h -1.23224 v 7.80417 h -5.09838 v 1.23224 z m 11.76788,-2.46447 h 3.86615 v -1.23224 h -2.63391 v -5.3397 h -1.23224 z m -2.46448,2.46447 h 6.33063 v -1.23224 h -5.09839 v -7.80417 h -1.23224 z m 3.86615,-2.46447 h 8.96453 v -1.23224 h -8.96453 z m 0,2.46447 h 8.96453 v -1.23224 h -8.96453 z m 10.3662,-2.46447 v -6.57194 h -1.23224 v 5.3397 h -2.63391 v 1.23224 z m 2.46447,2.46447 v -9.03641 h -1.23224 v 7.80417 h -5.09838 v 1.23224 z m 5.26783,-2.46447 h 3.86614 v -1.23224 h -2.63391 v -5.3397 h -1.23223 z m -2.46448,2.46447 h 6.33062 v -1.23224 h -5.09838 v -7.80417 h -1.23224 z m 3.86615,-2.46447 h 8.96453 v -1.23224 h -8.96453 z m 0,2.46447 h 8.96453 v -1.23224 h -8.96453 z m 6.50006,-2.46447 h 8.96454 v -1.23224 h -8.96454 z m 0,2.46447 h 8.96454 v -1.23224 h -8.96454 z m 6.50005,-2.46447 h 8.96453 v -1.23224 h -8.96453 z m 0,2.46447 h 8.96453 v -1.23224 h -8.96453 z m 6.50006,-2.46447 h 8.96453 v -1.23224 h -8.96453 z m 0,2.46447 h 8.96453 v -1.23224 h -8.96453 z m 6.50006,-2.46447 h 8.96453 v -1.23224 h -8.96453 z m 0,2.46447 h 8.96453 v -1.23224 h -8.96453 z m 10.36619,-2.46447 v -6.57194 h -1.23224 v 5.3397 h -2.6339 v 1.23224 z m 2.46448,2.46447 v -9.03641 h -1.23224 v 7.80417 h -5.09838 v 1.23224 z M 28.847882,334.00031 h 3.866148 v -1.23224 h -2.63391 v -5.3397 h -1.232238 z m -2.464476,2.46447 h 6.330624 v -1.23223 h -5.098386 v -7.80418 h -1.232238 z m 5.098385,3.4092 h 6.500057 v -10.5151 h -6.500057 z m 6.500057,0 h 6.500056 v -10.5151 h -6.500056 z m 6.500057,0 h 6.500057 v -10.5151 h -6.500057 z m 6.500055,0 h 6.500057 v -10.5151 H 50.98196 Z m 14.232352,-5.87367 v -1.23224 h -6.330624 v 9.03641 h 1.232239 v -7.80417 z m 0,2.46447 v -1.23223 h -3.866147 v 6.57193 h 1.232238 v -5.3397 z m 1.401672,-2.46447 v -6.57194 h -1.232238 v 5.3397 h -2.633909 v 1.23224 z m 2.464476,2.46447 v -9.03641 h -1.232238 v 7.80418 h -5.098385 v 1.23223 z m 11.767877,-2.46447 h 3.866147 v -1.23224 h -2.633909 v -5.3397 h -1.232238 z m -2.464477,2.46447 h 6.330624 v -1.23223 h -5.098386 v -7.80418 H 78.38386 Z m 5.098383,3.4092 h 6.500056 v -10.5151 h -6.500056 z m 6.500061,0 h 6.500056 v -10.5151 h -6.500056 z m 6.500053,0 h 6.500053 v -10.5151 h -6.500053 z m 6.500063,0 h 6.50005 v -10.5151 h -6.50005 z m 6.50005,0 h 6.50006 v -10.5151 h -6.50006 z m 6.50006,0 h 6.50006 v -10.5151 h -6.50006 z m 14.23235,-5.87367 v -1.23224 h -6.33062 v 9.03641 h 1.23224 v -7.80417 z m 0,2.46447 v -1.23223 h -3.86615 v 6.57193 h 1.23224 v -5.3397 z m 1.40167,-2.46447 v -6.57194 h -1.23224 v 5.3397 h -2.63391 v 1.23224 z m 2.46447,2.46447 v -9.03641 h -1.23223 v 7.80418 h -5.09839 v 1.23223 z m 1.40168,3.4092 h 6.50006 v -10.5151 h -6.50006 z m 6.50005,0 h 6.50006 v -10.5151 h -6.50006 z m 10.3662,1.9305 h 1.23224 v -14.37611 h -1.23224 z m -2.46447,0 h 1.23224 v -14.37611 h -1.23224 z m 5.09839,-1.9305 h 6.50005 v -10.5151 h -6.50005 z m 6.50006,0 h 6.50006 v -10.5151 h -6.50006 z m 6.50006,0 h 6.50006 v -10.5151 h -6.50006 z m 6.50005,0 h 6.50005 v -10.5151 h -6.50005 z m 6.50006,0 h 6.50005 v -10.5151 h -6.50005 z m 6.50006,0 h 6.50005 v -10.5151 h -6.50005 z m 14.23234,-5.87367 v -1.23224 h -6.33063 v 9.03641 h 1.23224 v -7.80417 z m 0,2.46447 v -1.23223 h -3.86615 v 6.57193 h 1.23224 v -5.3397 z m 1.40167,-2.46447 v -6.57194 h -1.23223 v 5.3397 h -2.63391 v 1.23224 z m 2.46448,2.46447 v -9.03641 h -1.23224 v 7.80418 h -5.09838 v 1.23223 z M 22.347825,322.4337 h 3.866148 v -1.23224 h -2.633909 v -5.3397 h -1.232239 z m -2.464476,2.46447 h 6.330624 v -1.23223 h -5.098386 v -7.80418 h -1.232238 z m 5.098386,3.4092 h 6.500056 v -10.5151 h -6.500056 z m 6.500056,0 h 6.500057 v -10.5151 h -6.500057 z m 11.598442,1.9305 v -9.03641 H 36.74961 v 1.23224 h 5.098385 v 7.80417 z m -2.464476,0 v -6.57193 H 36.74961 v 1.23223 h 2.633909 v 5.3397 z m 10.366203,-1.9305 h 6.500057 v -10.5151 H 50.98196 Z m 6.500058,0 h 6.500056 v -10.5151 H 57.482018 Z M 71.71437,322.4337 v -1.23224 h -6.330624 v 9.03641 h 1.232238 v -7.80417 z m 0,2.46447 v -1.23223 h -3.866148 v 6.57193 h 1.232238 v -5.3397 z m 1.401671,-2.46447 v -6.57194 h -1.232238 v 5.3397 h -2.633909 v 1.23224 z m 2.464477,2.46447 v -9.03641 h -1.232239 v 7.80418 h -5.098385 v 1.23223 z m 1.401671,3.4092 h 6.500057 v -10.5151 h -6.500057 z m 6.500054,0 h 6.500056 v -10.5151 h -6.500056 z m 10.366208,1.9305 h 1.232238 v -14.37611 h -1.232238 z m -2.464476,0 h 1.232238 v -14.37611 h -1.232238 z m 24.598555,-1.9305 h 6.50006 v -10.5151 h -6.50006 z m 6.50006,0 h 6.50005 v -10.5151 h -6.50005 z m 10.3662,1.9305 h 1.23223 v -14.37611 h -1.23223 z m -2.46448,0 h 1.23224 v -14.37611 h -1.23224 z m 5.09839,-1.9305 h 6.50006 v -10.5151 h -6.50006 z m 6.50005,0 h 6.50006 v -10.5151 h -6.50006 z m 10.3662,1.9305 h 1.23224 v -14.37611 h -1.23224 z m -2.46447,0 h 1.23224 v -14.37611 h -1.23224 z m 5.09839,-1.9305 h 6.50005 v -10.5151 h -6.50005 z m 6.50006,0 h 6.50006 v -10.5151 h -6.50006 z m 10.36621,1.9305 h 1.23224 v -14.37611 h -1.23224 z m -2.46448,0 h 1.23224 v -14.37611 h -1.23224 z m 18.0985,-1.9305 h 6.50005 v -10.5151 h -6.50005 z m 6.50004,0 h 6.50006 v -10.5151 h -6.50006 z m 10.36621,1.9305 h 1.23224 v -14.37611 h -1.23224 z m -2.46447,0 h 1.23223 v -14.37611 h -1.23223 z M 18.481678,316.74076 h 6.500057 v -10.5151 h -6.500057 z m 6.500057,0 h 6.500056 v -10.5151 h -6.500056 z m 10.366204,1.9305 h 1.232238 v -14.37611 h -1.232238 z m -2.464477,0 h 1.232239 v -14.37611 h -1.232239 z m 24.598556,-1.9305 h 6.500056 v -10.5151 h -6.500056 z m 6.500057,0 h 6.500056 v -10.5151 h -6.500056 z m 10.366204,1.9305 h 1.232239 v -14.37611 h -1.232239 z m -2.464476,0 h 1.232238 v -14.37611 h -1.232238 z m 5.098386,-1.9305 h 6.500057 v -10.5151 h -6.500057 z m 6.500054,0 h 6.500056 v -10.5151 h -6.500056 z m 10.366208,1.9305 h 1.232238 v -14.37611 h -1.232238 z m -2.464476,0 h 1.232238 v -14.37611 h -1.232238 z m 24.598555,-1.9305 h 6.50006 v -10.5151 h -6.50006 z m 6.50006,0 h 6.50005 v -10.5151 h -6.50005 z m 10.3662,1.9305 h 1.23223 v -14.37611 h -1.23223 z m -2.46448,0 h 1.23224 v -14.37611 h -1.23224 z m 5.09839,-1.9305 h 6.50006 v -10.5151 h -6.50006 z m 6.50005,0 h 6.50006 v -10.5151 h -6.50006 z m 10.3662,1.9305 h 1.23224 v -14.37611 h -1.23224 z m -2.46447,0 h 1.23224 v -14.37611 h -1.23224 z m 5.09839,-1.9305 h 6.50005 v -10.5151 h -6.50005 z m 6.50006,0 h 6.50006 v -10.5151 h -6.50006 z m 10.36621,1.9305 h 1.23224 v -14.37611 h -1.23224 z m -2.46448,0 h 1.23224 v -14.37611 h -1.23224 z m 18.0985,-1.9305 h 6.50005 v -10.5151 h -6.50005 z m 6.50004,0 h 6.50006 v -10.5151 h -6.50006 z m 10.36621,1.9305 h 1.23224 v -14.37611 h -1.23224 z m -2.46447,0 h 1.23223 v -14.37611 h -1.23223 z M 18.481678,305.17415 h 6.500057 v -10.5151 h -6.500057 z m 6.500057,0 h 6.500056 v -10.5151 h -6.500056 z m 10.366204,1.9305 h 1.232238 v -14.37611 h -1.232238 z m -2.464477,0 h 1.232239 v -14.37611 h -1.232239 z m 24.598556,-1.9305 h 6.500056 v -10.5151 h -6.500056 z m 6.500057,0 h 6.500056 v -10.5151 h -6.500056 z m 10.366204,1.9305 h 1.232239 v -14.37611 h -1.232239 z m -2.464476,0 h 1.232238 v -14.37611 h -1.232238 z m 5.098386,-1.9305 h 6.500057 v -10.5151 h -6.500057 z m 6.500054,0 h 6.500056 v -10.5151 h -6.500056 z m 14.232355,-5.87367 v -1.23224 h -6.330623 v 9.03641 h 1.232238 v -7.80417 z m 0,2.46447 v -1.23223 h -3.866147 v 6.57193 h 1.232238 v -5.3397 z m -2.464479,-2.46447 h 8.964531 v -1.23224 h -8.964531 z m 0,2.46447 h 8.964531 v -1.23223 h -8.964531 z m 6.500061,-2.46447 h 8.96453 v -1.23224 h -8.96453 z m 0,2.46447 h 8.96453 v -1.23223 h -8.96453 z m 6.50005,-2.46447 h 8.96454 v -1.23224 h -8.96454 z m 0,2.46447 h 8.96454 v -1.23223 h -8.96454 z m 7.7323,3.4092 h 6.50006 v -10.5151 h -6.50006 z m 6.50006,0 h 6.50005 v -10.5151 h -6.50005 z m 11.59843,1.9305 v -9.03641 h -6.33062 v 1.23224 h 5.09839 v 7.80417 z m -2.46447,0 v -6.57193 h -3.86615 v 1.23223 h 2.63391 v 5.3397 z m 3.86615,-1.9305 h 6.50006 v -10.5151 h -6.50006 z m 6.50005,0 h 6.50006 v -10.5151 h -6.50006 z m 10.3662,1.9305 h 1.23224 v -14.37611 h -1.23224 z m -2.46447,0 h 1.23224 v -14.37611 h -1.23224 z m 5.09839,-1.9305 h 6.50005 v -10.5151 h -6.50005 z m 6.50006,0 h 6.50006 v -10.5151 h -6.50006 z m 14.23236,-5.87367 v -1.23224 h -6.33063 v 9.03641 h 1.23224 v -7.80417 z m 0,2.46447 v -1.23223 h -3.86615 v 6.57193 h 1.23224 v -5.3397 z m -2.46449,-2.46447 h 8.96453 v -1.23224 h -8.96453 z m 0,2.46447 h 8.96453 v -1.23223 h -8.96453 z m 6.50006,-2.46447 h 8.96453 v -1.23224 h -8.96453 z m 0,2.46447 h 8.96453 v -1.23223 h -8.96453 z m 7.7323,3.4092 h 6.50005 v -10.5151 h -6.50005 z m 6.50004,0 h 6.50006 v -10.5151 h -6.50006 z m 11.59845,1.9305 v -9.03641 h -6.33062 v 1.23224 h 5.09838 v 7.80417 z m -2.46448,0 v -6.57193 h -3.86614 v 1.23223 h 2.63391 v 5.3397 z M 24.981735,293.60754 h 6.500056 v -10.5151 h -6.500056 z m 11.598442,1.9305 v -9.03641 h -6.330624 v 1.23224 h 5.098386 v 7.80417 z m -2.464476,0 v -6.57193 h -3.866148 v 1.23223 h 2.633909 v 5.3397 z m 23.366317,-1.9305 h 6.500056 v -10.5151 h -6.500056 z m 6.500057,0 h 6.500056 v -10.5151 h -6.500056 z m 11.598443,1.9305 v -9.03641 h -6.330624 v 1.23224 h 5.098385 v 7.80417 z m -2.464477,0 v -6.57193 h -3.866147 v 1.23223 h 2.633909 v 5.3397 z m 10.366202,-1.9305 h 6.500056 v -10.5151 h -6.500056 z m 6.500061,0 h 6.500056 v -10.5151 h -6.500056 z m 6.500053,0 h 6.500053 v -10.5151 h -6.500053 z m 6.500063,0 h 6.50005 v -10.5151 h -6.50005 z m 6.50005,0 h 6.50006 v -10.5151 h -6.50006 z m 6.50006,0 h 6.50006 v -10.5151 h -6.50006 z m 11.59844,1.9305 v -9.03641 h -6.33062 v 1.23224 h 5.09838 v 7.80417 z m -2.46447,0 v -6.57193 h -3.86615 v 1.23223 h 2.63391 v 5.3397 z m 10.3662,-1.9305 h 6.50006 v -10.5151 h -6.50006 z m 6.50005,0 h 6.50006 v -10.5151 h -6.50006 z m 11.59844,1.9305 v -9.03641 h -6.33062 v 1.23224 h 5.09838 v 7.80417 z m -2.46447,0 v -6.57193 h -3.86615 v 1.23223 h 2.63391 v 5.3397 z m 3.86615,-1.9305 h 6.50005 v -10.5151 h -6.50005 z m 6.50006,0 h 6.50006 v -10.5151 h -6.50006 z m 6.50006,0 h 6.50006 v -10.5151 h -6.50006 z m 6.50005,0 h 6.50005 v -10.5151 h -6.50005 z m 6.50006,0 h 6.50005 v -10.5151 h -6.50005 z m 6.50006,0 h 6.50005 v -10.5151 h -6.50005 z m 11.59843,1.9305 v -9.03641 h -6.33062 v 1.23224 h 5.09838 v 7.80417 z m -2.46448,0 v -6.57193 h -3.86614 v 1.23223 h 2.6339 v 5.3397 z m -178.135432,-1.9305 h 6.500057 v -10.5151 h -6.500057 z" /></g><g
             id="text45"
             style="font-weight:900;font-size:10.5151px;line-height:1.1;font-family:'SFMono Nerd Font';-inkscape-font-specification:'SFMono Nerd Font Heavy';fill:#286983;stroke-width:0.298066;stroke-linecap:round;stroke-linejoin:round"
             aria-label="&#10;██╗     ██╗███╗   ██╗██╗   ██╗██╗  ██╗&#10;██║     ██║████╗  ██║██║   ██║╚██╗██╔╝&#10;██║     ██║██╔██╗ ██║██║   ██║ ╚███╔╝ &#10;██║     ██║██║╚██╗██║██║   ██║ ██╔██╗ &#10;███████╗██║██║ ╚████║╚██████╔╝██╔╝ ██╗&#10;╚══════╝╚═╝╚═╝  ╚═══╝ ╚═════╝ ╚═╝  ╚═╝ &#10;"><path
               id="path58"
               style="fill:#3e8fb0"
               d="m 241.38878,345.56692 h 3.86614 v -1.23224 h -2.63391 v -5.3397 h -1.23223 z m -2.46448,2.46447 h 6.33062 v -1.23224 h -5.09838 v -7.80417 h -1.23224 z m 3.86615,-2.46447 h 8.96453 v -1.23224 h -8.96453 z m 0,2.46447 h 8.96453 v -1.23224 h -8.96453 z m 6.50005,-2.46447 h 8.96454 v -1.23224 h -8.96454 z m 0,2.46447 h 8.96454 v -1.23224 h -8.96454 z m 6.50006,-2.46447 h 8.96453 v -1.23224 h -8.96453 z m 0,2.46447 h 8.96453 v -1.23224 h -8.96453 z m 6.50006,-2.46447 h 8.96453 v -1.23224 h -8.96453 z m 0,2.46447 h 8.96453 v -1.23224 h -8.96453 z m 6.50005,-2.46447 h 8.96454 v -1.23224 h -8.96454 z m 0,2.46447 h 8.96454 v -1.23224 h -8.96454 z m 6.50006,-2.46447 h 8.96453 v -1.23224 h -8.96453 z m 0,2.46447 h 8.96453 v -1.23224 h -8.96453 z m 10.3662,-2.46447 v -6.57194 h -1.23223 v 5.3397 h -2.63391 v 1.23224 z m 2.46448,2.46447 v -9.03641 h -1.23224 v 7.80417 h -5.09838 v 1.23224 z m 5.26782,-2.46447 h 3.86615 v -1.23224 h -2.63391 v -5.3397 h -1.23224 z m -2.46448,2.46447 h 6.33063 v -1.23224 h -5.09839 v -7.80417 h -1.23224 z m 3.86615,-2.46447 h 8.96453 v -1.23224 h -8.96453 z m 0,2.46447 h 8.96453 v -1.23224 h -8.96453 z m 10.3662,-2.46447 v -6.57194 h -1.23224 v 5.3397 h -2.6339 v 1.23224 z m 2.46448,2.46447 v -9.03641 h -1.23224 v 7.80417 h -5.09838 v 1.23224 z m 5.26782,-2.46447 h 3.86615 v -1.23224 h -2.63391 v -5.3397 h -1.23224 z m -2.46447,2.46447 h 6.33062 v -1.23224 h -5.09839 v -7.80417 h -1.23223 z m 3.86614,-2.46447 h 8.96453 v -1.23224 h -8.96453 z m 0,2.46447 h 8.96453 v -1.23224 h -8.96453 z m 10.36621,-2.46447 v -6.57194 h -1.23224 v 5.3397 h -2.63391 v 1.23224 z m 2.46447,2.46447 v -9.03641 h -1.23223 v 7.80417 h -5.09839 v 1.23224 z m 18.26793,-2.46447 h 3.86615 v -1.23224 h -2.63391 v -5.3397 h -1.23224 z m -2.46447,2.46447 h 6.33062 v -1.23224 h -5.09838 v -7.80417 h -1.23224 z m 3.86614,-2.46447 h 8.96453 v -1.23224 h -8.96453 z m 0,2.46447 h 8.96453 v -1.23224 h -8.96453 z m 6.50006,-2.46447 h 8.96454 v -1.23224 h -8.96454 z m 0,2.46447 h 8.96454 v -1.23224 h -8.96454 z m 6.50006,-2.46447 h 8.96453 v -1.23224 h -8.96453 z m 0,2.46447 h 8.96453 v -1.23224 h -8.96453 z m 10.3662,-2.46447 v -6.57194 h -1.23224 v 5.3397 h -2.63391 v 1.23224 z m 2.46447,2.46447 v -9.03641 h -1.23223 v 7.80417 h -5.09839 v 1.23224 z m 11.76789,-2.46447 h 3.86614 v -1.23224 h -2.6339 v -5.3397 h -1.23224 z m -2.46448,2.46447 h 6.33062 v -1.23224 h -5.09838 v -7.80417 h -1.23224 z m 3.86615,-2.46447 h 8.96454 v -1.23224 h -8.96454 z m 0,2.46447 h 8.96454 v -1.23224 h -8.96454 z m 6.50005,-2.46447 h 8.96453 v -1.23224 h -8.96453 z m 0,2.46447 h 8.96453 v -1.23224 h -8.96453 z m 6.50006,-2.46447 h 8.96453 v -1.23224 h -8.96453 z m 0,2.46447 h 8.96453 v -1.23224 h -8.96453 z m 6.50006,-2.46447 h 8.96453 v -1.23224 h -8.96453 z m 0,2.46447 h 8.96453 v -1.23224 h -8.96453 z m 6.50005,-2.46447 h 8.96453 v -1.23224 h -8.96453 z m 0,2.46447 h 8.96453 v -1.23224 h -8.96453 z m 10.3662,-2.46447 v -6.57194 h -1.23223 v 5.3397 h -2.63391 v 1.23224 z m 2.46448,2.46447 v -9.03641 h -1.23224 v 7.80417 h -5.09838 v 1.23224 z m 11.76789,-2.46447 h 3.86614 v -1.23224 h -2.63391 v -5.3397 h -1.23223 z m -2.46448,2.46447 h 6.33062 v -1.23224 h -5.09838 v -7.80417 h -1.23224 z m 3.86614,-2.46447 h 8.96453 v -1.23224 h -8.96453 z m 0,2.46447 h 8.96453 v -1.23224 h -8.96453 z m 10.3662,-2.46447 v -6.57194 h -1.23223 v 5.3397 h -2.63391 v 1.23224 z m 2.46448,2.46447 v -9.03641 h -1.23224 v 7.80417 h -5.09838 v 1.23224 z m 18.26793,-2.46447 h 3.86615 v -1.23224 H 470.123 v -5.3397 h -1.23224 z m -2.46448,2.46447 h 6.33063 v -1.23224 h -5.09839 v -7.80417 h -1.23224 z m 3.86616,-2.46447 h 8.96453 v -1.23224 h -8.96453 z m 0,2.46447 h 8.96453 v -1.23224 h -8.96453 z m 10.3662,-2.46447 v -6.57194 h -1.23223 v 5.3397 h -2.63391 v 1.23224 z m 2.46448,2.46447 v -9.03641 h -1.23224 v 7.80417 h -5.09838 v 1.23224 z m -245.60049,-8.15741 h 6.50006 v -10.5151 h -6.50006 z m 6.50006,0 h 6.50005 v -10.5151 h -6.50005 z m 6.50005,0 h 6.50006 v -10.5151 h -6.50006 z m 6.50006,0 h 6.50006 v -10.5151 h -6.50006 z m 6.50006,0 h 6.50005 v -10.5151 h -6.50005 z m 6.50005,0 h 6.50006 v -10.5151 h -6.50006 z m 6.50006,0 h 6.50005 v -10.5151 h -6.50005 z m 11.59844,1.9305 v -9.03641 h -6.33062 v 1.23224 h 5.09838 v 7.80417 z m -2.46448,0 v -6.57193 h -3.86614 v 1.23223 h 2.63391 v 5.3397 z m 3.86615,-1.9305 h 6.50006 v -10.5151 h -6.50006 z m 6.50006,0 h 6.50006 v -10.5151 h -6.50006 z m 10.3662,1.9305 h 1.23224 v -14.37611 h -1.23224 z m -2.46448,0 h 1.23224 v -14.37611 h -1.23224 z m 5.09839,-1.9305 h 6.50006 v -10.5151 h -6.50006 z m 6.50006,0 h 6.50005 v -10.5151 h -6.50005 z m 10.36621,1.9305 h 1.23223 v -14.37611 h -1.23223 z m -2.46448,0 h 1.23224 v -14.37611 h -1.23224 z m 15.46459,-7.80417 h 3.86615 v -1.23224 h -2.63391 v -5.3397 h -1.23224 z m -2.46448,2.46447 h 6.33063 v -1.23223 h -5.09839 v -7.80418 h -1.23224 z m 5.09839,3.4092 h 6.50005 v -10.5151 h -6.50005 z m 6.50005,0 h 6.50006 v -10.5151 h -6.50006 z m 6.50006,0 h 6.50006 v -10.5151 h -6.50006 z m 6.50005,0 h 6.50006 v -10.5151 h -6.50006 z m 10.36621,1.9305 h 1.23223 v -14.37611 h -1.23223 z m -2.46448,0 h 1.23224 v -14.37611 h -1.23224 z m 8.96454,-7.80417 h 3.86614 v -1.23224 h -2.63391 v -5.3397 h -1.23223 z m -2.46448,2.46447 h 6.33062 v -1.23223 h -5.09838 v -7.80418 h -1.23224 z m 5.09839,3.4092 h 6.50006 v -10.5151 h -6.50006 z m 6.50006,0 h 6.50006 v -10.5151 h -6.50006 z m 6.50005,0 h 6.50005 v -10.5151 h -6.50005 z m 6.50006,0 h 6.50005 v -10.5151 h -6.50005 z m 6.50006,0 h 6.50006 v -10.5151 h -6.50006 z m 6.50004,0 h 6.50006 v -10.5151 h -6.50006 z m 14.23236,-5.87367 v -1.23224 h -6.33062 v 9.03641 h 1.23223 v -7.80417 z m 0,2.46447 v -1.23223 h -3.86615 v 6.57193 h 1.23224 v -5.3397 z m 1.40168,-2.46447 v -6.57194 h -1.23224 v 5.3397 h -2.63391 v 1.23224 z m 2.46447,2.46447 v -9.03641 h -1.23224 v 7.80418 h -5.09838 v 1.23223 z m 1.40168,3.4092 h 6.50005 v -10.5151 h -6.50005 z m 6.50004,0 h 6.50006 v -10.5151 h -6.50006 z m 14.23236,-5.87367 v -1.23224 h -6.33062 v 9.03641 h 1.23223 v -7.80417 z m 0,2.46447 v -1.23223 h -3.86615 v 6.57193 h 1.23224 v -5.3397 z m 1.40167,-2.46447 v -6.57194 h -1.23223 v 5.3397 h -2.63391 v 1.23224 z m 2.46448,2.46447 v -9.03641 h -1.23224 v 7.80418 h -5.09838 v 1.23223 z m 7.90172,3.4092 h 6.50006 v -10.5151 h -6.50006 z m 6.50006,0 h 6.50006 v -10.5151 h -6.50006 z m 11.59845,1.9305 v -9.03641 h -6.33062 v 1.23224 h 5.09838 v 7.80417 z m -2.46448,0 v -6.57193 h -3.86614 v 1.23223 h 2.63391 v 5.3397 z M 237.52263,328.30737 h 6.50006 v -10.5151 h -6.50006 z m 6.50006,0 h 6.50005 v -10.5151 h -6.50005 z m 10.3662,1.9305 h 1.23224 v -14.37611 h -1.23224 z m -2.46448,0 h 1.23224 v -14.37611 h -1.23224 z m 37.59867,-1.9305 h 6.50006 v -10.5151 h -6.50006 z m 6.50006,0 h 6.50006 v -10.5151 h -6.50006 z m 10.3662,1.9305 h 1.23224 v -14.37611 h -1.23224 z m -2.46448,0 h 1.23224 v -14.37611 h -1.23224 z m 5.09839,-1.9305 h 6.50006 v -10.5151 h -6.50006 z m 6.50006,0 h 6.50005 v -10.5151 h -6.50005 z m 10.36621,1.9305 h 1.23223 v -14.37611 h -1.23223 z m -2.46448,0 h 1.23224 v -14.37611 h -1.23224 z m 8.96453,-7.80417 h 3.86615 v -1.23224 h -2.63391 v -5.3397 h -1.23224 z m -2.46448,2.46447 h 6.33063 v -1.23223 h -5.09839 v -7.80418 h -1.23224 z m 5.09839,3.4092 h 6.50006 v -10.5151 h -6.50006 z m 6.50006,0 h 6.50005 v -10.5151 h -6.50005 z m 11.59844,1.9305 v -9.03641 h -6.33063 v 1.23224 h 5.09839 v 7.80417 z m -2.46448,0 v -6.57193 h -3.86615 v 1.23223 h 2.63391 v 5.3397 z m 3.86615,-1.9305 h 6.50006 v -10.5151 h -6.50006 z m 6.50005,0 h 6.50006 v -10.5151 h -6.50006 z m 10.36621,1.9305 h 1.23223 v -14.37611 h -1.23223 z m -2.46448,0 h 1.23224 v -14.37611 h -1.23224 z m 5.09839,-1.9305 h 6.50006 v -10.5151 h -6.50006 z m 6.50006,0 h 6.50006 v -10.5151 h -6.50006 z m 10.36621,1.9305 h 1.23224 v -14.37611 h -1.23224 z m -2.46448,0 h 1.23224 v -14.37611 h -1.23224 z m 24.59854,-1.9305 h 6.50006 v -10.5151 h -6.50006 z m 6.50007,0 h 6.50005 v -10.5151 h -6.50005 z m 10.3662,1.9305 h 1.23224 v -14.37611 h -1.23224 z m -2.46447,0 h 1.23224 v -14.37611 h -1.23224 z m 11.59843,-1.9305 h 6.50006 v -10.5151 h -6.50006 z m 6.50006,0 h 6.50006 v -10.5151 h -6.50006 z m 14.23236,-5.87367 v -1.23224 h -6.33062 v 9.03641 h 1.23223 v -7.80417 z m 0,2.46447 v -1.23223 h -3.86615 v 6.57193 h 1.23224 v -5.3397 z m -1.23225,3.4092 h 6.50006 v -10.5151 h -6.50006 z m 6.50006,0 h 6.50006 v -10.5151 h -6.50006 z m 11.59845,1.9305 v -9.03641 h -6.33062 v 1.23224 h 5.09838 v 7.80417 z m -2.46448,0 v -6.57193 h -3.86614 v 1.23223 h 2.6339 v 5.3397 z M 237.52263,316.74076 h 6.50006 v -10.5151 h -6.50006 z m 6.50006,0 h 6.50005 v -10.5151 h -6.50005 z m 10.3662,1.9305 h 1.23224 v -14.37611 h -1.23224 z m -2.46448,0 h 1.23224 v -14.37611 h -1.23224 z m 37.59867,-1.9305 h 6.50006 v -10.5151 h -6.50006 z m 6.50006,0 h 6.50006 v -10.5151 h -6.50006 z m 10.3662,1.9305 h 1.23224 v -14.37611 h -1.23224 z m -2.46448,0 h 1.23224 v -14.37611 h -1.23224 z m 5.09839,-1.9305 h 6.50006 v -10.5151 h -6.50006 z m 6.50006,0 h 6.50005 v -10.5151 h -6.50005 z m 14.23235,-5.87367 v -1.23224 h -6.33062 v 9.03641 h 1.23224 v -7.80417 z m 0,2.46447 v -1.23223 h -3.86614 v 6.57193 h 1.23223 v -5.3397 z m -1.23224,3.4092 h 6.50006 v -10.5151 h -6.50006 z m 6.50006,0 h 6.50006 v -10.5151 h -6.50006 z m 11.59844,1.9305 v -9.03641 h -6.33062 v 1.23224 h 5.09838 v 7.80417 z m -2.46447,0 v -6.57193 h -3.86615 v 1.23223 h 2.63391 v 5.3397 z m 10.3662,-1.9305 h 6.50006 v -10.5151 h -6.50006 z m 6.50005,0 h 6.50006 v -10.5151 h -6.50006 z m 10.36621,1.9305 h 1.23223 v -14.37611 h -1.23223 z m -2.46448,0 h 1.23224 v -14.37611 h -1.23224 z m 5.09839,-1.9305 h 6.50006 v -10.5151 h -6.50006 z m 6.50006,0 h 6.50006 v -10.5151 h -6.50006 z m 10.36621,1.9305 h 1.23224 v -14.37611 h -1.23224 z m -2.46448,0 h 1.23224 v -14.37611 h -1.23224 z m 24.59854,-1.9305 h 6.50006 v -10.5151 h -6.50006 z m 6.50007,0 h 6.50005 v -10.5151 h -6.50005 z m 10.3662,1.9305 h 1.23224 v -14.37611 h -1.23224 z m -2.46447,0 h 1.23224 v -14.37611 h -1.23224 z m 15.46458,-7.80417 h 3.86615 v -1.23224 h -2.63391 v -5.3397 h -1.23224 z m -2.46448,2.46447 h 6.33063 v -1.23223 h -5.09839 v -7.80418 h -1.23224 z m 5.09839,3.4092 h 6.50006 v -10.5151 h -6.50006 z m 6.50007,0 h 6.50005 v -10.5151 h -6.50005 z m 6.50004,0 h 6.50006 v -10.5151 h -6.50006 z m 14.23236,-5.87367 v -1.23224 h -6.33063 v 9.03641 h 1.23224 v -7.80417 z m 0,2.46447 v -1.23223 h -3.86615 v 6.57193 h 1.23224 v -5.3397 z m 1.40167,-2.46447 v -6.57194 h -1.23224 v 5.3397 h -2.6339 v 1.23224 z m 2.46448,2.46447 v -9.03641 h -1.23224 v 7.80418 h -5.09838 v 1.23223 z m -239.10043,-8.15741 h 6.50006 v -10.5151 h -6.50006 z m 6.50006,0 h 6.50005 v -10.5151 h -6.50005 z m 10.3662,1.9305 h 1.23224 v -14.37611 h -1.23224 z m -2.46448,0 h 1.23224 v -14.37611 h -1.23224 z m 37.59867,-1.9305 h 6.50006 v -10.5151 h -6.50006 z m 6.50006,0 h 6.50006 v -10.5151 h -6.50006 z m 10.3662,1.9305 h 1.23224 v -14.37611 h -1.23224 z m -2.46448,0 h 1.23224 v -14.37611 h -1.23224 z m 5.09839,-1.9305 h 6.50006 v -10.5151 h -6.50006 z m 6.50006,0 h 6.50005 v -10.5151 h -6.50005 z m 6.50006,0 h 6.50006 v -10.5151 h -6.50006 z m 6.50005,0 h 6.50006 v -10.5151 h -6.50006 z m 11.59845,1.9305 v -9.03641 h -6.33062 v 1.23224 h 5.09838 v 7.80417 z m -2.46448,0 v -6.57193 h -3.86614 v 1.23223 h 2.6339 v 5.3397 z m 16.86626,-1.9305 h 6.50006 v -10.5151 h -6.50006 z m 6.50005,0 h 6.50006 v -10.5151 h -6.50006 z m 10.36621,1.9305 h 1.23223 v -14.37611 h -1.23223 z m -2.46448,0 h 1.23224 v -14.37611 h -1.23224 z m 5.09839,-1.9305 h 6.50006 v -10.5151 h -6.50006 z m 6.50006,0 h 6.50006 v -10.5151 h -6.50006 z m 10.36621,1.9305 h 1.23224 v -14.37611 h -1.23224 z m -2.46448,0 h 1.23224 v -14.37611 h -1.23224 z m 24.59854,-1.9305 h 6.50006 v -10.5151 h -6.50006 z m 6.50007,0 h 6.50005 v -10.5151 h -6.50005 z m 10.3662,1.9305 h 1.23224 v -14.37611 h -1.23224 z m -2.46447,0 h 1.23224 v -14.37611 h -1.23224 z m 8.96454,-7.80417 h 3.86614 v -1.23224 h -2.63391 v -5.3397 h -1.23223 z m -2.46448,2.46447 h 6.33062 v -1.23223 h -5.09838 v -7.80418 h -1.23224 z m 5.09837,3.4092 h 6.50006 v -10.5151 h -6.50006 z m 6.50006,0 h 6.50006 v -10.5151 h -6.50006 z m 11.59845,1.9305 v -9.03641 h -6.33062 v 1.23224 h 5.09838 v 7.80417 z m -2.46448,0 v -6.57193 h -3.86614 v 1.23223 h 2.63391 v 5.3397 z m 3.86614,-1.9305 h 6.50006 v -10.5151 h -6.50006 z m 6.50006,0 h 6.50006 v -10.5151 h -6.50006 z m 14.23236,-5.87367 v -1.23224 h -6.33063 v 9.03641 h 1.23224 v -7.80417 z m 0,2.46447 v -1.23223 h -3.86615 v 6.57193 h 1.23224 v -5.3397 z m 1.40167,-2.46447 v -6.57194 h -1.23223 v 5.3397 h -2.63391 v 1.23224 z m 2.46448,2.46447 v -9.03641 h -1.23224 v 7.80418 h -5.09838 v 1.23223 z m -239.10043,-8.15741 h 6.50005 v -10.5151 h -6.50005 z m 11.59844,1.9305 v -9.03641 h -6.33063 v 1.23224 h 5.09839 v 7.80417 z m -2.46448,0 v -6.57193 h -3.86615 v 1.23223 h 2.63391 v 5.3397 z m 36.36643,-1.9305 h 6.50006 v -10.5151 h -6.50006 z m 6.50006,0 h 6.50006 v -10.5151 h -6.50006 z m 11.59844,1.9305 v -9.03641 h -6.33062 v 1.23224 h 5.09838 v 7.80417 z m -2.46448,0 v -6.57193 h -3.86614 v 1.23223 h 2.6339 v 5.3397 z m 3.86615,-1.9305 h 6.50006 v -10.5151 h -6.50006 z m 6.50006,0 h 6.50005 v -10.5151 h -6.50005 z m 6.50006,0 h 6.50006 v -10.5151 h -6.50006 z m 11.59844,1.9305 v -9.03641 h -6.33063 v 1.23224 h 5.09839 v 7.80417 z m -2.46448,0 v -6.57193 h -3.86615 v 1.23223 h 2.63391 v 5.3397 z m 23.36632,-1.9305 h 6.50006 v -10.5151 h -6.50006 z m 6.50005,0 h 6.50006 v -10.5151 h -6.50006 z m 11.59844,1.9305 v -9.03641 h -6.33062 v 1.23224 h 5.09839 v 7.80417 z m -2.46447,0 v -6.57193 h -3.86615 v 1.23223 h 2.63391 v 5.3397 z m 3.86615,-1.9305 h 6.50006 v -10.5151 h -6.50006 z m 6.50006,0 h 6.50006 v -10.5151 h -6.50006 z m 11.59845,1.9305 v -9.03641 h -6.33063 v 1.23224 h 5.09839 v 7.80417 z m -2.46448,0 v -6.57193 h -3.86615 v 1.23223 h 2.63391 v 5.3397 z m 23.3663,-1.9305 h 6.50006 v -10.5151 h -6.50006 z m 6.50007,0 h 6.50005 v -10.5151 h -6.50005 z m 11.59844,1.9305 v -9.03641 h -6.33062 v 1.23224 h 5.09838 v 7.80417 z m -2.46447,0 v -6.57193 h -3.86615 v 1.23223 h 2.63391 v 5.3397 z m 3.86615,-1.9305 h 6.50005 v -10.5151 h -6.50005 z m 6.50004,0 h 6.50006 v -10.5151 h -6.50006 z m 11.59845,1.9305 v -9.03641 h -6.33062 v 1.23224 h 5.09838 v 7.80417 z m -2.46448,0 v -6.57193 h -3.86614 v 1.23223 h 2.63391 v 5.3397 z m 16.86626,-1.9305 h 6.50006 v -10.5151 h -6.50006 z m 6.50006,0 h 6.50006 v -10.5151 h -6.50006 z m 11.59845,1.9305 v -9.03641 h -6.33062 v 1.23224 h 5.09838 v 7.80417 z m -2.46448,0 v -6.57193 h -3.86614 v 1.23223 h 2.63391 v 5.3397 z m -243.13601,-1.9305 h 6.50006 v -10.5151 h -6.50006 z" /></g></g></g><g
         id="g6"
         transform="matrix(0.59840607,0,0,0.59840607,177.41408,21.727584)"><path
           d="M 128.01682,0 C 105.98494,0.04678314 84.523372,7.0072685 66.657757,19.900168 l 23.902685,23.902684 c 11.277448,-6.898594 24.236288,-10.559734 37.456378,-10.582214 39.77241,-7.9e-5 72.01434,32.241846 72.01426,72.014262 -0.0318,13.21538 -3.69956,26.16719 -10.60151,37.43708 l 23.94799,23.94799 c 12.8888,-17.87595 19.8404,-39.34715 19.87417,-61.38507 C 233.25173,47.115274 186.13644,0 128.01682,0 Z"
           fill="#abc2ab"
           id="path1"
           style="fill:#3e8fb0;fill-opacity:1" /><path
           d="m 189.37588,190.56963 -23.90269,-23.90268 c -11.27745,6.89859 -24.23629,10.55974 -37.45637,10.58221 -39.772417,8e-5 -72.014343,-32.24185 -72.014264,-72.01426 0.03183,-13.215382 3.699547,-26.167196 10.60151,-37.437081 L 42.656067,43.849832 C 29.76725,61.725769 22.815686,83.196977 22.781918,105.2349 c 0,58.11962 47.115274,105.2349 105.234902,105.2349 22.03188,-0.0468 43.49344,-7.00726 61.35906,-19.90017 z"
           fill="#478061"
           id="path2"
           style="fill:#286983;fill-opacity:1" /><circle
           fill="#abc2ab"
           cx="128"
           cy="105.2349"
           r="33.503357"
           id="circle2"
           style="fill:#3e8fb0;fill-opacity:1" /><path
           d="m 30.591915,124.81039 c -1.147564,0.81968 -2.192665,1.22952 -3.135303,1.22952 h -4.057453 c -0.573782,0 -1.024609,-0.10245 -1.352481,-0.30737 -0.327871,-0.20493 -0.59427,-0.51231 -0.799195,-0.92215 L 0.46842244,86.203138 C 0.38645233,86.121168 0.34546728,86.01871 0.34546728,85.895763 v -0.368865 c 0,-0.409842 0.14344762,-0.737718 0.43034287,-0.983628 C 1.1036817,84.256383 1.615986,84.11294 2.3127229,84.11294 H 27.579567 c 1.35248,0 2.233641,0.409841 2.643482,1.229525 L 43.010172,109.99455 78.85096,85.342465 c 1.188548,-0.819684 2.438574,-1.229525 3.750078,-1.229525 h 3.995963 c 0.532806,0 0.799208,0.225413 0.799208,0.67624 0,0.368856 -0.327871,0.819683 -0.983614,1.35248 z"
           fill="#000000"
           id="path3"
           style="fill:#232136;fill-opacity:1" /><path
           d="m 86.35303,126.03991 c -2.131187,0 -4.016463,-0.32787 -5.65583,-0.98362 -1.639384,-0.69673 -3.012366,-1.63937 -4.118944,-2.82792 -1.106579,-1.18855 -1.946755,-2.58201 -2.520528,-4.18039 -0.573773,-1.63938 -0.860659,-3.40171 -0.860659,-5.287 0,-2.41807 0.409842,-4.79516 1.229525,-7.13126 0.819683,-2.33611 1.946754,-4.56976 3.381213,-6.70095 1.475427,-2.131187 3.196763,-4.098434 5.16401,-5.901741 2.008232,-1.803315 4.180404,-3.360721 6.516517,-4.672216 2.377097,-1.311495 4.877141,-2.336103 7.500131,-3.073825 2.623008,-0.778698 5.307485,-1.168047 8.053425,-1.168047 h 30.12348 c 2.17218,0 4.07795,0.327871 5.71734,0.983614 1.68035,0.655752 3.07381,1.577903 4.18039,2.766451 1.10658,1.147555 1.94676,2.520527 2.52053,4.118918 0.57379,1.59839 0.86069,3.340224 0.86069,5.2255 0,2.418083 -0.43034,4.815666 -1.29101,7.192756 -0.8197,2.33611 -1.96726,4.56976 -3.44269,6.70094 -1.47544,2.13118 -3.21728,4.11893 -5.22551,5.96323 -2.00823,1.80331 -4.2009,3.3812 -6.57799,4.73368 -2.37708,1.3115 -4.87713,2.35661 -7.50013,3.13531 -2.62299,0.73772 -5.26649,1.10657 -7.93048,1.10657 z m 37.00886,-25.1439 c 1.35249,-2.868898 2.02874,-5.020573 2.02874,-6.455023 0,-1.188549 -0.43035,-2.008237 -1.29103,-2.459063 -0.81969,-0.450827 -2.04921,-0.67624 -3.68858,-0.67624 h -8.36081 c -1.18854,0 -2.29512,0.163935 -3.31974,0.491807 -0.98363,0.286895 -1.90577,0.7992 -2.76644,1.536913 -0.86067,0.737722 -1.70084,1.72135 -2.52053,2.950883 -0.77869,1.229526 -1.57788,2.766434 -2.39757,4.610723 l -2.950895,6.70095 c -1.557397,3.48367 -2.336095,6.10667 -2.336095,7.869 0,1.18854 0.348364,2.04921 1.045092,2.582 0.696746,0.49181 1.700862,0.73772 3.012348,0.73772 h 8.42229 c 1.27052,0 2.43858,-0.18443 3.50417,-0.55328 1.0656,-0.40985 2.09021,-1.04511 3.07383,-1.90578 0.98362,-0.86067 1.92626,-2.00823 2.82791,-3.44268 0.90166,-1.43445 1.8238,-3.19678 2.76644,-5.28698 z"
           fill="#000000"
           id="path4"
           style="fill:#232136;fill-opacity:1" /><path
           d="m 144.12269,126.03991 c -0.73771,0 -1.10657,-0.2459 -1.10657,-0.73771 0,-0.2459 0.0615,-0.55329 0.18444,-0.92215 l 17.27487,-38.668719 c 0.49183,-1.065594 1.27053,-1.59839 2.33613,-1.59839 h 21.14791 c 0.7787,0 1.16805,0.266394 1.16805,0.799182 0,0.24591 -0.082,0.512313 -0.24589,0.799208 L 167.6682,124.38005 c -0.49182,1.10658 -1.27052,1.65986 -2.33612,1.65986 z"
           fill="#000000"
           id="path5"
           style="fill:#232136;fill-opacity:1" /><path
           d="m 174.34897,126.03991 c -0.73772,0 -1.10657,-0.2459 -1.10657,-0.73771 0,-0.2459 0.0615,-0.55329 0.18443,-0.92215 l 17.27488,-38.668719 c 0.49182,-1.065594 1.27053,-1.59839 2.33612,-1.59839 h 49.42712 c 2.13119,0 4.01646,0.327871 5.65583,0.983614 1.63937,0.655752 3.01234,1.577903 4.11892,2.766451 1.10657,1.147555 1.94676,2.520527 2.52055,4.118918 0.57377,1.59839 0.86066,3.340224 0.86066,5.2255 0,2.500053 -0.43033,4.959116 -1.291,7.377186 -0.86067,2.37709 -2.04922,4.63123 -3.56565,6.76242 -1.47543,2.13118 -3.23775,4.09843 -5.28696,5.90174 -2.00824,1.80331 -4.2009,3.36072 -6.578,4.67221 -2.33611,1.27052 -4.79517,2.27464 -7.37717,3.01235 -2.58203,0.73772 -5.16404,1.10658 -7.74605,1.10658 z m 53.48456,-25.1439 c 1.3115,-2.950868 1.96725,-5.102543 1.96725,-6.455023 0,-1.188549 -0.40984,-2.008237 -1.22952,-2.459063 -0.81969,-0.450827 -2.00824,-0.67624 -3.56565,-0.67624 h -12.47973 l -12.17235,27.479996 h 12.41826 c 1.22953,0 2.37709,-0.18443 3.44269,-0.55328 1.06559,-0.40985 2.06971,-1.0451 3.01234,-1.90578 0.98363,-0.90166 1.92627,-2.04921 2.82792,-3.44268 0.94264,-1.43445 1.88528,-3.19678 2.82791,-5.28698 z"
           fill="#000000"
           id="path6"
           style="fill:#232136;fill-opacity:1" /></g></g></g></svg>
